<svg width="60" height="60.064" class="image-svg-svg primary" filter="url(#colors5041236886)" style="overflow:visible"><svg xmlns="http://www.w3.org/2000/svg" viewBox="0 0 97.9 98"><path fill="none" stroke="#202121" stroke-miterlimit="10" stroke-width="4" d="M72.8 35.2c7.6-7.6 7.6-19.9 0-27.5C65.2.1 52.9.1 45.3 7.7c-7.6 7.6-7.6 19.9 0 27.5l.6.6L59 49l13.1 13.2.6.6c7.6 7.6 7.6 19.9 0 27.5-7.6 7.6-19.9 7.6-27.5 0-7.6-7.6-7.6-19.9 0-27.5l27.6-27.6zM25.2 62.8c-7.6 7.6-7.6 19.9 0 27.5 7.6 7.6 19.9 7.6 27.5 0 7.6-7.6 7.6-19.9 0-27.5l-.6-.6L39 49 25.8 35.9l-.6-.6c-7.6-7.6-7.6-19.9 0-27.5C32.8.2 45.1.2 52.7 7.8c7.6 7.6 7.6 19.9 0 27.5L25.2 62.8zm10-17.6c-7.6-7.6-19.9-7.6-27.5 0-7.6 7.6-7.6 19.9 0 27.5 7.6 7.6 19.9 7.6 27.5 0l.6-.6L49 59l13.1-13.1.6-.6c7.6-7.6 19.9-7.6 27.5 0 7.6 7.6 7.6 19.9 0 27.5-7.6 7.6-19.9 7.6-27.5 0L35.2 45.2zm0-20c-7.6-7.6-19.9-7.6-27.5 0-7.6 7.6-7.6 19.9 0 27.5 7.6 7.6 19.9 7.6 27.5 0l.6-.6L49 39l13.1-13.1.6-.6c7.6-7.6 19.9-7.6 27.5 0 7.6 7.6 7.6 19.9 0 27.5-7.6 7.6-19.9 7.6-27.5 0L35.2 25.2z"/></svg></svg>