<svg width="60" height="59.959" class="image-svg-svg primary" filter="url(#colors643950113)" style="overflow:visible"><svg xmlns="http://www.w3.org/2000/svg" xmlns:svg="http://www.w3.org/2000/svg" viewBox="6.559 7.304 85.454 85.396"><path d="M48.631 7.305c-.55-.004-1.108.004-1.675.026-4.288.16-8.017 1.035-11.209 2.425-2.298.617-4.661 1.538-7.073 2.813-3.792 2.005-6.773 4.408-9.046 7.044-1.803 1.553-3.533 3.409-5.154 5.605-2.545 3.448-4.186 6.904-5.09 10.263-.954 2.185-1.71 4.612-2.219 7.298-.797 4.214-.774 8.04-.13 11.46.091 2.379.46 4.892 1.166 7.53 1.11 4.143 2.793 7.583 4.858 10.386 1.113 2.103 2.54 4.204 4.318 6.272 2.799 3.251 5.806 5.62 8.882 7.25 1.916 1.413 4.108 2.69 6.61 3.781 3.925 1.712 7.656 2.54 11.13 2.676 2.343.444 4.88.643 7.616.54 4.287-.16 8.013-1.035 11.205-2.425 2.3-.617 4.665-1.538 7.078-2.814 3.792-2.005 6.771-4.41 9.044-7.047 1.803-1.553 3.536-3.406 5.156-5.601 2.55-3.456 4.194-6.92 5.097-10.285.95-2.18 1.705-4.6 2.212-7.276.798-4.223.774-8.056.126-11.482-.092-2.373-.459-4.878-1.163-7.508-1.113-4.15-2.8-7.595-4.87-10.4-1.11-2.1-2.531-4.195-4.306-6.258-2.799-3.251-5.805-5.621-8.882-7.25-1.916-1.413-4.107-2.69-6.609-3.782C61.77 8.83 58.03 8 54.548 7.867a33.06 33.06 0 0 0-5.917-.562zm0 .58c.787.006 1.55.047 2.302.102a23.59 23.59 0 0 0-4.789 1.008 25.675 25.675 0 0 0-6.439-.011c2.211-.598 4.631-.974 7.277-1.073.557-.021 1.108-.03 1.65-.026zm5.322.537c.186.003.374.015.561.022 3.194.606 6.005 1.685 8.44 3.11-.33-.026-.66-.05-.99-.062a23.356 23.356 0 0 0-6.586.715 23.997 23.997 0 0 0-7.9-2.999 23.63 23.63 0 0 1 6.475-.786zm4.48.46c2.257.42 4.609 1.136 7.04 2.197 1.262.55 2.434 1.15 3.54 1.787a23.612 23.612 0 0 0-4.76-1.17 25.678 25.678 0 0 0-5.82-2.814zm-15.504.464c.673 0 1.335.034 1.99.087-.309.12-.617.242-.918.374a23.376 23.376 0 0 0-5.626 3.502 23.99 23.99 0 0 0-8.418.725 23.743 23.743 0 0 1 6.003-3.742c2.412-.644 4.743-.945 6.969-.946zm3.317.232a23.372 23.372 0 0 1 8.396 2.832 24.316 24.316 0 0 0-7.29 3.513 24.18 24.18 0 0 0-8.14-2.524c1.518-1.206 3.183-2.255 5.022-3.06.65-.284 1.323-.535 2.012-.76zm-13.697 1.853a23.59 23.59 0 0 0-3.883 2.99 25.666 25.666 0 0 0-5.829 2.8c1.736-1.504 3.759-2.899 6.109-4.14a35.657 35.657 0 0 1 3.603-1.65zm28.216.63c.391-.005.783-.003 1.178.012.71.025 1.425.09 2.143.185a23.384 23.384 0 0 1 6.337 6.195 24.406 24.406 0 0 0-8.092 0 24.208 24.208 0 0 0-6.236-5.804c1.517-.344 3.074-.565 4.67-.59zm4.593.4c2.221.422 4.46 1.197 6.667 2.363 2.615 1.932 4.68 4.126 6.257 6.468a22.91 22.91 0 0 0-.862-.486 23.38 23.38 0 0 0-6.247-2.215 23.978 23.978 0 0 0-5.815-6.13zm-10.05.366a23.643 23.643 0 0 1 6.378 5.728 22.745 22.745 0 0 0-7.428 2.842 22.113 22.113 0 0 0-3.855-3.618 23.249 23.249 0 0 0-2.472-1.548 23.724 23.724 0 0 1 7.378-3.404zm-18.797.924c.433.006.863.029 1.291.058a24.284 24.284 0 0 0-5.042 6.33 24.186 24.186 0 0 0-8.43 1.258c.844-1.744 1.888-3.416 3.195-4.938A22.27 22.27 0 0 1 29 14.904a23.404 23.404 0 0 1 7.511-1.153zm2.07.145a23.637 23.637 0 0 1 8.233 2.393c-.628.47-1.233.966-1.808 1.49a22.692 22.692 0 0 0-3.65 4.292 22.084 22.084 0 0 0-5.044-1.584c-.95-.174-1.92-.267-2.896-.323a23.69 23.69 0 0 1 5.165-6.268zm-10.829 1.45c-.227.243-.452.486-.667.736a23.353 23.353 0 0 0-3.552 5.598 23.994 23.994 0 0 0-7.27 4.303c.908-2.072 2.161-4.082 3.79-5.975 2.467-2.12 5.065-3.646 7.7-4.662zm19.639 1.25c.928.501 1.829 1.038 2.669 1.65a21.551 21.551 0 0 1 3.694 3.448c-2.22 1.41-4.152 3.2-5.634 5.344-1.707-1.997-3.848-3.57-6.232-4.72a22.16 22.16 0 0 1 3.51-4.111c.628-.574 1.299-1.104 1.993-1.61zm27.98.33c1.85 1.358 3.656 3.018 5.388 5.03a35.5 35.5 0 0 1 2.41 3.139 23.586 23.586 0 0 0-3.78-3.118 25.69 25.69 0 0 0-4.018-5.05zm-9.255 1.755c1.57-.015 3.155.136 4.724.44a23.644 23.644 0 0 1 3.262 7.928 23.994 23.994 0 0 0-2.29-.486 22.754 22.754 0 0 0-5.635-.178 22.08 22.08 0 0 0-1.903-4.93 23.48 23.48 0 0 0-1.555-2.469c1.119-.173 2.25-.293 3.397-.305zm-4.042.403c.619.853 1.2 1.728 1.69 2.643a21.524 21.524 0 0 1 1.83 4.709c-2.61.307-5.13 1.08-7.396 2.367-.671-2.541-1.916-4.884-3.567-6.957a22.17 22.17 0 0 1 4.945-2.178 23.395 23.395 0 0 1 2.498-.584zm9.548.221c1.89.434 3.75 1.08 5.526 2.016.628.33 1.244.698 1.849 1.094a23.365 23.365 0 0 1 3.02 8.331 24.32 24.32 0 0 0-7.291-3.505 24.19 24.19 0 0 0-3.104-7.936zm-39.747 1.374c.187 0 .372.019.558.022a24.113 24.113 0 0 0-.986 2.128 22.705 22.705 0 0 0-1.42 5.453 22.105 22.105 0 0 0-5.236.757c-.932.256-1.846.594-2.751.968.189-2.677.82-5.359 1.935-7.888 2.582-.936 5.26-1.423 7.9-1.44zm1.21.05c1.053.049 2.1.14 3.122.327 1.682.309 3.297.83 4.822 1.505-1.387 2.232-2.355 4.685-2.759 7.257-2.405-1.058-5.013-1.546-7.66-1.548.247-1.769.694-3.527 1.377-5.224a23.4 23.4 0 0 1 1.099-2.316zm21.042 1.418c1.663 2.07 2.91 4.42 3.556 6.965-.8.49-1.57 1.04-2.295 1.664A17.918 17.918 0 0 0 51.94 34.8a17.788 17.788 0 0 0-1.834-4.913 17.333 17.333 0 0 0-1.606-2.385c1.46-2.155 3.397-3.948 5.627-5.355zm-30.891.232a24.285 24.285 0 0 0-1.799 7.889 24.189 24.189 0 0 0-7.048 4.789c0-1.937.22-3.896.737-5.833a22.75 22.75 0 0 1 .656-2.041 23.387 23.387 0 0 1 7.454-4.804zm-5.768.134a23.648 23.648 0 0 0-2.197 4.38 25.651 25.651 0 0 0-4.035 5.046c.913-2.107 2.128-4.24 3.705-6.377a35.509 35.509 0 0 1 2.527-3.049zm24.097.29c2.397 1.145 4.534 2.725 6.22 4.739a17.794 17.794 0 0 0-1.34 2.49 17.868 17.868 0 0 0-1.366 5.123 17.88 17.88 0 0 0-3.782-3.633 17.436 17.436 0 0 0-2.48-1.45c.382-2.575 1.349-5.034 2.748-7.269zm38.487.348a23.738 23.738 0 0 1 4.98 5.018c1.52 2.878 2.431 5.752 2.835 8.548a23.16 23.16 0 0 0-.569-.815 23.365 23.365 0 0 0-4.661-4.706 24.006 24.006 0 0 0-2.585-8.045zm-12.643 3.713a22.483 22.483 0 0 1 4.311.272c.84.134 1.673.327 2.502.554.188 1.039.329 2.08.374 3.118a21.511 21.511 0 0 1-.392 5.036c-2.487-.856-5.093-1.252-7.693-1.073.497-2.581.396-5.233-.192-7.817.363-.031.724-.078 1.09-.09zm-1.674.141c.6 2.59.7 5.245.178 7.82-.933.095-1.863.254-2.785.5a17.925 17.925 0 0 0-4.854 2.128c.426-1.775.579-3.526.479-5.22a17.228 17.228 0 0 0-.413-2.846c2.25-1.308 4.775-2.082 7.395-2.382zm9.11.881a23.69 23.69 0 0 1 7.262 3.644 23.637 23.637 0 0 1-.5 8.559 23.967 23.967 0 0 0-1.857-1.432 22.713 22.713 0 0 0-4.998-2.603c.342-1.715.5-3.484.423-5.271a24.169 24.169 0 0 0-.33-2.897zm-26.674.134c.525.675 1.005 1.39 1.428 2.15.89 1.6 1.54 3.392 1.9 5.362-1.217 2.128-2.107 4.633-2.582 7.526-.775-2.828-1.913-5.231-3.328-7.222a17.464 17.464 0 0 1 1.386-5.572c.342-.784.747-1.53 1.196-2.244zm-33.324.109c-.099.315-.196.63-.279.946a23.348 23.348 0 0 0-.773 6.584 23.989 23.989 0 0 0-4.68 7.033 23.71 23.71 0 0 1 .812-7.008c1.303-2.987 2.985-5.493 4.92-7.555zm16.385.707c2.414.077 4.776.595 6.959 1.58a17.575 17.575 0 0 0-.131 2.828c.064 1.72.393 3.465.996 5.206a17.86 17.86 0 0 0-4.984-1.631 17.385 17.385 0 0 0-2.868-.228c-.774-2.486-.97-5.12-.678-7.74.235 0 .473-.023.706-.015zm-1.29.025c-.28 2.613-.092 5.243.66 7.736-2.625.09-5.187.782-7.573 1.929a22.216 22.216 0 0 1-1.026-5.304 21.638 21.638 0 0 1-.01-2.567 23.07 23.07 0 0 1 2.952-1.055 21.541 21.541 0 0 1 5-.74zm27.875.848c.181.837.308 1.69.36 2.56a17.307 17.307 0 0 1-.617 5.651c-2.02 1.39-3.91 3.262-5.594 5.663.53-2.882.545-5.537.134-7.943a17.474 17.474 0 0 1 3.67-4.426 17.094 17.094 0 0 1 2.047-1.505zm-19.073.975c.766.38 1.508.812 2.22 1.313a17.412 17.412 0 0 1 4.038 4.01c-.172 2.443.112 5.088.939 7.899-1.924-2.21-3.99-3.878-6.127-5.057a17.434 17.434 0 0 1-1.174-5.627c-.037-.855.01-1.7.104-2.538zm-17.354.232c-.028.784-.01 1.567.037 2.342a22.75 22.75 0 0 0 1.08 5.533 22.058 22.058 0 0 0-4.386 2.954 23.496 23.496 0 0 0-2.06 2.067 23.69 23.69 0 0 1-1.678-7.95 23.64 23.64 0 0 1 7.008-4.946zm65.753.613c1.075 2.023 1.982 4.297 2.668 6.856.356 1.328.62 2.62.812 3.882a23.673 23.673 0 0 0-2.06-4.459 25.638 25.638 0 0 0-1.42-6.279zm-4.412.504c1.512 1.21 2.91 2.604 4.104 4.216.422.571.816 1.168 1.188 1.788a23.395 23.395 0 0 1-.891 8.82 24.304 24.304 0 0 0-5.05-6.326c.703-2.714.941-5.593.649-8.498zm-15.28 3.274c2.244-.04 4.481.363 6.633 1.113-.583 2.59-1.643 5.028-3.23 7.12a17.71 17.71 0 0 0-2.73-.754 17.913 17.913 0 0 0-5.3-.189 17.86 17.86 0 0 0 2.701-4.499c.37-.899.65-1.816.863-2.744.353-.028.708-.04 1.062-.047zm-1.676.116c-.2.83-.457 1.653-.787 2.458a17.375 17.375 0 0 1-3.009 4.829c-2.421.375-4.936 1.24-7.493 2.671 1.727-2.369 2.897-4.755 3.571-7.102a17.45 17.45 0 0 1 5.22-2.392 17.12 17.12 0 0 1 2.498-.464zm-51.947.993c.153 2.75.786 5.418 1.805 7.892a24.173 24.173 0 0 0-4.27 7.374c-.839-1.747-1.492-3.608-1.868-5.58a22.62 22.62 0 0 1-.297-2.127 23.388 23.388 0 0 1 4.63-7.559zm37.819.029c.336 2.54.186 5.365-.547 8.45a31.24 31.24 0 0 0-1.349 2.4c-.12-.94-.274-1.842-.461-2.708.347-3.153 1.166-5.863 2.357-8.142zm22.985.18a22.174 22.174 0 0 1 4.789 2.506 23.446 23.446 0 0 1 2.011 1.588c-.281 1.016-.604 2.015-1.014 2.969a21.567 21.567 0 0 1-2.538 4.369c-1.87-1.851-4.044-3.34-6.463-4.307 1.567-2.11 2.624-4.542 3.215-7.124zm-29.1.139c1.404 2.142 2.494 4.754 3.171 7.852a31.484 31.484 0 0 0-.166 2.752 32.178 32.178 0 0 0-1.596-2.248c-1.054-2.99-1.494-5.787-1.41-8.356zm-14.742.406c.301.89.665 1.762 1.11 2.606a17.95 17.95 0 0 0 3.158 4.26 17.833 17.833 0 0 0-5.199.692c-.931.272-1.826.62-2.683 1.034-1.775-1.904-3.095-4.191-3.969-6.678 2.39-1.161 4.958-1.85 7.583-1.914zm.617 0c.854.01 1.713.074 2.57.217 1.807.302 3.612.916 5.377 1.864.905 2.276 2.309 4.536 4.274 6.71-2.693-1.157-5.278-1.764-7.715-1.9a17.437 17.437 0 0 1-3.498-4.56c-.4-.756-.73-1.537-1.008-2.331zM57.3 38.8c-.8 2.436-2.165 4.92-4.166 7.385a31.57 31.57 0 0 0-2.256 1.58c.3-.9.555-1.783.762-2.646 1.681-2.69 3.596-4.783 5.66-6.319zm-48.61.247c-.199 1.673-.22 3.31-.082 4.897a25.654 25.654 0 0 0-1.447 6.301c-.094-2.298.083-4.752.576-7.366.255-1.347.578-2.617.95-3.832zm79.965.105a23.725 23.725 0 0 1 2.312 6.677c.121 3.255-.304 6.241-1.152 8.937-.056-.328-.102-.656-.164-.979a23.39 23.39 0 0 0-2.16-6.264 23.99 23.99 0 0 0 1.164-8.371zm-65.97.192c.88 2.477 2.195 4.764 3.954 6.685-2.326 1.22-4.335 2.952-5.988 5.02a22.124 22.124 0 0 1-3.226-4.331 23.41 23.41 0 0 1-1.124-2.306c.694-.793 1.417-1.552 2.2-2.233a21.535 21.535 0 0 1 4.184-2.835zm17.477.355c2.195 1.321 4.31 3.203 6.265 5.7.297.837.644 1.686 1.04 2.551a32.372 32.372 0 0 0-2.41-1.33c-2.25-2.237-3.856-4.569-4.895-6.92zm41.748 1.457a23.678 23.678 0 0 1 4.96 6.435 23.652 23.652 0 0 1-4.165 7.498 24.202 24.202 0 0 0-1.047-2.1 22.736 22.736 0 0 0-3.376-4.513 22.083 22.083 0 0 0 2.669-4.564c.38-.889.688-1.814.96-2.756zM64.775 43.05c1.11 0 2.191.102 3.24.3.84.16 1.66.387 2.455.664a16.75 16.75 0 0 1-1.777 1.874 17.385 17.385 0 0 1-4.803 3.046c-2.346-.713-4.99-1.026-7.918-.845 2.584-1.384 4.671-3.026 6.297-4.847.848-.122 1.686-.19 2.506-.192zm-3.412.337c-1.777 1.848-4.085 3.492-6.957 4.843a31.55 31.55 0 0 0-2.716.446 32.158 32.158 0 0 0 1.835-2.055c2.682-1.694 5.313-2.745 7.838-3.234zm9.686.834c2.426.944 4.608 2.434 6.476 4.296-1.651 2.084-3.664 3.82-6.004 5.017a17.679 17.679 0 0 0-2.131-1.867 17.926 17.926 0 0 0-4.688-2.469 17.82 17.82 0 0 0 4.379-2.878 17.356 17.356 0 0 0 1.968-2.1zm-36.745.388c.45-.014.908-.01 1.37.015 1.803 1.658 4.048 3.084 6.762 4.19-2.931.127-5.525.702-7.78 1.64a17.44 17.44 0 0 1-5.124-2.593 17.215 17.215 0 0 1-1.92-1.664 16.783 16.783 0 0 1 2.41-.917 17.16 17.16 0 0 1 4.282-.67zm2.291.073c2.553.237 5.276 1.014 8.124 2.418a31.59 31.59 0 0 0 2.038 1.845 32.193 32.193 0 0 0-2.748-.152c-2.995-1.04-5.457-2.443-7.414-4.111zm-20.723.228c.318.716.666 1.416 1.049 2.092a22.72 22.72 0 0 0 3.375 4.517 22.078 22.078 0 0 0-2.668 4.564c-.382.889-.69 1.814-.961 2.756a23.675 23.675 0 0 1-4.96-6.435 23.632 23.632 0 0 1 4.165-7.494zm-7.108.32c.055.327.101.655.163.978a23.355 23.355 0 0 0 2.16 6.264A23.994 23.994 0 0 0 9.92 60.84a23.764 23.764 0 0 1-2.31-6.674c-.12-3.254.304-6.241 1.154-8.937zm18.292 1.232c.658.67 1.364 1.3 2.132 1.867a17.912 17.912 0 0 0 4.687 2.469 17.856 17.856 0 0 0-4.378 2.878 17.358 17.358 0 0 0-1.969 2.1c-2.426-.945-4.608-2.436-6.475-4.297 1.65-2.084 3.664-3.82 6.003-5.017zm22.064.413c.065.446.116.903.164 1.367-.028.058-.056.122-.083.181a1.627 1.627 0 0 0-.102-.174c0-.466 0-.925.01-1.374zm1.363.25c-.134.425-.277.857-.434 1.29-.056.043-.105.089-.156.131 0-.066 0-.137-.01-.203.198-.417.4-.823.607-1.218zm-2.69.156c.247.369.493.75.733 1.142v.2c-.055-.038-.11-.08-.168-.117-.201-.411-.39-.82-.569-1.225zm3.83.642c-.31.327-.633.653-.965.979-.065.016-.129.035-.192.05.018-.061.055-.126.074-.188.362-.293.723-.573 1.084-.841zm-4.874.268c.386.227.774.467 1.164.718.028.059.065.118.094.178l-.203-.03a33.62 33.62 0 0 1-1.055-.866zm40.466.127c.839 1.747 1.492 3.608 1.867 5.58.134.697.23 1.407.297 2.127a23.382 23.382 0 0 1-4.633 7.555 24.314 24.314 0 0 0-1.801-7.885 24.205 24.205 0 0 0 4.27-7.377zm-29.13.294c1.774.036 3.42.27 4.943.67-2.403.893-5.192 1.374-8.364 1.345-.84-.288-1.72-.55-2.64-.78a32.135 32.135 0 0 0 2.548-1.054c1.22-.14 2.394-.204 3.514-.181zm19.842.333a22.168 22.168 0 0 1 3.227 4.332c.419.741.785 1.516 1.124 2.306a23.21 23.21 0 0 1-2.205 2.233 21.536 21.536 0 0 1-4.18 2.835c-.88-2.477-2.195-4.763-3.954-6.685 2.325-1.22 4.335-2.952 5.988-5.02zm-25.635.196c-.419.16-.85.311-1.29.46-.065-.014-.132-.023-.196-.036.056-.046.1-.09.149-.137.451-.107.898-.202 1.337-.287zm-9.135.22c.248 0 .504.01.757.01.837.289 1.717.548 2.636.777-.891.327-1.74.679-2.544 1.055-3.15.362-5.977.168-8.462-.486 2.212-.823 4.747-1.303 7.613-1.352zm3.055.106c.447.037.9.089 1.36.145.056.042.114.08.167.12-.056.02-.127.038-.188.058-.456-.1-.903-.208-1.339-.323zm17.706.076a17.443 17.443 0 0 1 5.127 2.592 17.06 17.06 0 0 1 1.921 1.664c-.773.362-1.576.674-2.41.917a17.396 17.396 0 0 1-5.653.657c-1.803-1.66-4.05-3.084-6.764-4.191 2.93-.126 5.525-.703 7.78-1.639zm27.491.214c.094 2.295-.083 4.749-.572 7.36a36.086 36.086 0 0 1-.95 3.835 23.54 23.54 0 0 0 .074-4.894 25.654 25.654 0 0 0 1.447-6.301zm-42.13.102c.01 0 .029.01.038.01h.027c.01.01.019.015.028.022l.019.01c0 .014.009.025.018.037 0 .01 0 .015.01.022V50.018c0 .013-.01.027-.02.04v.018c-.008.01-.008.017-.027.025 0 .01-.018.012-.018.019-.01 0-.019.01-.028.01l-.018.01c-.01 0-.028-.01-.037-.01h-.019a.11.11 0 0 0-.037-.025s-.009-.01-.018-.015c0-.01-.01-.02-.01-.03 0-.01 0-.014-.009-.021V49.98c0-.013.01-.027.019-.04 0-.01 0-.014.009-.022l.028-.026c0-.01.009-.01.018-.015.01 0 .028-.01.037-.011 0 0 .01-.01.019-.01zm1.748.348c.456.1.899.207 1.334.322a35.818 35.818 0 0 1-1.356-.145c-.056-.04-.113-.078-.166-.12.055-.02.127-.037.188-.057zm-3.45.188c.064.014.13.023.194.036-.055.046-.1.091-.148.138-.452.106-.898.201-1.338.286.42-.16.851-.311 1.291-.46zm2.994.515.196.029c.364.287.72.575 1.062.866a33.445 33.445 0 0 1-1.164-.717c-.028-.06-.065-.12-.094-.178zm-2.459.134c-.018.062-.055.126-.073.189a33.52 33.52 0 0 1-1.084.84c.31-.327.632-.652.965-.978.064-.015.128-.035.192-.051zm3.71.01c.944.092 1.859.142 2.747.152 2.995 1.04 5.458 2.444 7.414 4.111-2.553-.237-5.278-1.015-8.124-2.418a31.583 31.583 0 0 0-2.038-1.845zm-17.133.011c2.345.713 4.986 1.025 7.913.845-2.585 1.384-4.671 3.025-6.297 4.847-1.996.285-3.92.236-5.743-.109-.84-.16-1.658-.386-2.454-.663.54-.663 1.13-1.293 1.776-1.875a17.404 17.404 0 0 1 4.805-3.045zm12.198.257a32 32 0 0 0-1.838 2.056c-2.68 1.693-5.31 2.745-7.834 3.234 1.777-1.849 4.084-3.492 6.956-4.844a31.416 31.416 0 0 0 2.716-.446zm3.162.055c.055.036.109.077.163.113.206.419.401.834.583 1.247-.25-.375-.5-.762-.744-1.16v-.2zm-1.363.076c0 .066 0 .137.009.203-.198.417-.399.824-.607 1.218.136-.424.28-.856.436-1.29.055-.043.104-.088.156-.13zm.688.124c.028.057.065.117.102.174 0 .466 0 .923-.01 1.374a32.315 32.315 0 0 1-.163-1.367l.083-.181zm-28.676.37c1.869 1.85 4.044 3.339 6.464 4.306-1.568 2.11-2.625 4.542-3.216 7.124a22.171 22.171 0 0 1-4.79-2.505 23.696 23.696 0 0 1-2.011-1.588c.281-1.016.605-2.015 1.015-2.97a21.561 21.561 0 0 1 2.538-4.368zm30.413.1c.811.494 1.615.937 2.41 1.331 2.248 2.237 3.855 4.57 4.894 6.921-2.194-1.32-4.31-3.202-6.264-5.699a31.12 31.12 0 0 0-1.04-2.552zm-3.412.186c-.299.9-.55 1.78-.758 2.643-1.681 2.692-3.595 4.781-5.659 6.319.8-2.435 2.163-4.92 4.162-7.382.75-.476 1.501-1.002 2.255-1.58zm2.342.402c.517.797 1.05 1.543 1.595 2.244 1.056 2.99 1.494 5.787 1.41 8.357-1.405-2.144-2.497-4.753-3.175-7.853.095-.883.152-1.798.17-2.748zm-1.218.066c.121.944.276 1.85.464 2.72-.347 3.15-1.169 5.86-2.36 8.138-.336-2.54-.183-5.368.551-8.454.468-.755.917-1.557 1.345-2.404zm-37.377.446a24.3 24.3 0 0 0 5.05 6.326 24.197 24.197 0 0 0-.649 8.498c-1.513-1.21-2.91-2.604-4.104-4.216a22.652 22.652 0 0 1-1.19-1.787 23.378 23.378 0 0 1 .893-8.821zm43.5.892c2.693 1.157 5.282 1.764 7.719 1.9a17.477 17.477 0 0 1 3.499 4.56c.398.756.728 1.537 1.007 2.331a16.851 16.851 0 0 1-2.57-.217 17.398 17.398 0 0 1-5.377-1.86c-.906-2.279-2.311-4.538-4.278-6.714zm16.452.2c1.778 1.903 3.094 4.192 3.97 6.68-2.39 1.16-4.956 1.851-7.581 1.915-.3-.89-.666-1.762-1.113-2.607a17.907 17.907 0 0 0-3.153-4.26c1.826.02 3.567-.217 5.198-.692a17.393 17.393 0 0 0 2.68-1.037zm-27.306.384c-1.727 2.367-2.893 4.752-3.567 7.098a17.444 17.444 0 0 1-5.224 2.396c-.828.222-1.664.373-2.503.468.202-.832.461-1.656.791-2.462a17.379 17.379 0 0 1 3.01-4.828c2.42-.376 4.936-1.241 7.493-2.672zm8.545 1.472c1.924 2.21 3.99 3.88 6.127 5.06a17.458 17.458 0 0 1 1.174 5.627c.028.855-.01 1.7-.104 2.538a16.846 16.846 0 0 1-2.22-1.313 17.404 17.404 0 0 1-4.038-4.01c.171-2.444-.112-5.09-.939-7.902zm29.876.101a23.7 23.7 0 0 1 1.682 7.943 23.647 23.647 0 0 1-7.008 4.949c.028-.785.019-1.566-.037-2.342a22.708 22.708 0 0 0-1.08-5.533 22.058 22.058 0 0 0 4.383-2.954 23.472 23.472 0 0 0 2.06-2.063zm-35.901.225c-.53 2.882-.545 5.537-.135 7.943a17.454 17.454 0 0 1-3.668 4.426 17.096 17.096 0 0 1-2.048 1.501 16.66 16.66 0 0 1-.36-2.556 17.33 17.33 0 0 1 .616-5.651c2.02-1.39 3.91-3.262 5.595-5.663zm-18.888.043c.882.319 1.792.576 2.73.754 1.69.32 3.464.389 5.297.188a17.803 17.803 0 0 0-2.698 4.496c-.37.899-.651 1.819-.863 2.748-2.597.202-5.206-.199-7.696-1.066.583-2.591 1.643-5.028 3.23-7.12zm21.937.482c.774 2.826 1.911 5.229 3.323 7.218-.165 2.009-.637 3.875-1.38 5.576-.342.783-.75 1.527-1.196 2.24a16.7 16.7 0 0 1-1.429-2.146c-.89-1.6-1.54-3.392-1.9-5.362 1.216-2.127 2.106-4.634 2.582-7.526zm39.802.366a23.7 23.7 0 0 1-.817 7.019c-1.3 2.982-2.981 5.484-4.915 7.544.099-.315.196-.63.279-.946.584-2.189.824-4.404.772-6.584a23.992 23.992 0 0 0 4.681-7.033zm-81.508.42a23.67 23.67 0 0 0 2.055 4.46 25.671 25.671 0 0 0 1.433 6.3c-1.08-2.027-1.988-4.31-2.676-6.877-.356-1.33-.62-2.62-.812-3.882zm9.016 2.183a24.3 24.3 0 0 0 1.856 1.432 22.738 22.738 0 0 0 5 2.603 22.092 22.092 0 0 0-.424 5.271c.046.965.166 1.932.33 2.897a23.685 23.685 0 0 1-7.262-3.644 23.637 23.637 0 0 1 .5-8.559zm58.574 1.563a22.22 22.22 0 0 1 1.03 5.303c.056.85.056 1.708.01 2.567a23.06 23.06 0 0 1-2.953 1.055c-1.65.452-3.33.686-4.998.74.282-2.614.083-5.242-.663-7.737 2.624-.089 5.186-.782 7.573-1.928zm-16.02.076a17.828 17.828 0 0 0 4.981 1.627c.958.16 1.916.232 2.867.232.775 2.486.97 5.12.679 7.74-2.658.01-5.273-.483-7.668-1.566.115-.931.17-1.874.134-2.828a17.941 17.941 0 0 0-.993-5.205zm-19.22.996a17.863 17.863 0 0 0-.48 5.22c.056.97.201 1.919.414 2.847-2.252 1.309-4.779 2.082-7.4 2.382-.6-2.59-.7-5.245-.178-7.82a17.675 17.675 0 0 0 2.788-.504 17.909 17.909 0 0 0 4.855-2.125zm-29.599.733c.187.276.377.55.573.815a23.38 23.38 0 0 0 4.663 4.71 23.998 23.998 0 0 0 2.58 8.044c-1.815-1.343-3.495-3.01-4.977-5.017-1.52-2.88-2.434-5.755-2.839-8.552zm13.668.877c2.486.856 5.093 1.251 7.694 1.073-.498 2.58-.4 5.23.188 7.813-1.78.153-3.593.11-5.399-.178a23.416 23.416 0 0 1-2.5-.555 23.167 23.167 0 0 1-.375-3.117 21.56 21.56 0 0 1 .392-5.036zm29.125.689a17.8 17.8 0 0 0 3.778 3.629c.794.56 1.626 1.04 2.484 1.454-.381 2.576-1.348 5.033-2.748 7.268-2.399-1.145-4.537-2.723-6.225-4.738a17.7 17.7 0 0 0 1.345-2.49 17.929 17.929 0 0 0 1.366-5.123zm30.689.094c0 1.938-.219 3.898-.736 5.837a22.502 22.502 0 0 1-.656 2.044 23.38 23.38 0 0 1-7.454 4.8 24.334 24.334 0 0 0 1.799-7.888 24.195 24.195 0 0 0 7.047-4.793zm-37.547.261a17.784 17.784 0 0 0 1.83 4.912 17.337 17.337 0 0 0 1.607 2.386c-1.46 2.155-3.398 3.948-5.627 5.354-1.663-2.07-2.91-4.418-3.556-6.964.8-.49 1.57-1.041 2.294-1.664a17.95 17.95 0 0 0 3.452-4.024zm40.701 2.86c-.912 2.108-2.128 4.24-3.705 6.377a35.613 35.613 0 0 1-2.52 3.038 23.691 23.691 0 0 0 2.194-4.372 25.728 25.728 0 0 0 4.031-5.043zm-70.78 1.19a24.306 24.306 0 0 0 7.29 3.509 24.18 24.18 0 0 0 3.1 7.936c-1.888-.434-3.748-1.081-5.522-2.016a22.785 22.785 0 0 1-1.849-1.095 23.365 23.365 0 0 1-3.02-8.335zm59.976.743c-.19 2.677-.82 5.359-1.935 7.888a23.643 23.643 0 0 1-8.458 1.418 24.06 24.06 0 0 0 .983-2.128 22.798 22.798 0 0 0 1.424-5.453 22.11 22.11 0 0 0 5.235-.761c.932-.255 1.846-.59 2.751-.964zm-16.234.188c2.405 1.059 5.016 1.546 7.664 1.548a22.167 22.167 0 0 1-1.377 5.224c-.318.79-.693 1.56-1.1 2.317a23.144 23.144 0 0 1-3.12-.33 21.552 21.552 0 0 1-4.822-1.501c1.387-2.232 2.35-4.685 2.755-7.258zM40.38 71.2c.672 2.541 1.913 4.885 3.564 6.957a22.16 22.16 0 0 1-4.942 2.179c-.814.243-1.653.43-2.498.584-.619-.853-1.199-1.728-1.689-2.643a21.58 21.58 0 0 1-1.831-4.71c2.612-.307 5.13-1.078 7.396-2.367zm-15.905 1.755c.76.199 1.524.363 2.292.486 1.88.3 3.772.345 5.63.177a22.089 22.089 0 0 0 1.907 4.93c.457.852.989 1.67 1.555 2.47-2.653.41-5.406.39-8.12-.135a23.647 23.647 0 0 1-3.264-7.928zm25.982.01c1.708 1.997 3.845 3.57 6.23 4.721a22.222 22.222 0 0 1-3.506 4.111c-.629.573-1.3 1.104-1.994 1.61-.929-.5-1.832-1.04-2.672-1.653a21.552 21.552 0 0 1-3.69-3.444c2.218-1.41 4.152-3.202 5.632-5.344zm31.857 1.052a23.78 23.78 0 0 1-3.789 5.978c-2.466 2.12-5.065 3.647-7.7 4.663.227-.243.453-.486.667-.736a23.387 23.387 0 0 0 3.553-5.598 23.982 23.982 0 0 0 7.269-4.307zm-66.899.9a23.651 23.651 0 0 0 3.771 3.106 25.658 25.658 0 0 0 4.021 5.054c-1.85-1.358-3.657-3.017-5.387-5.028a35.705 35.705 0 0 1-2.405-3.133zm41.808 3.016a22.077 22.077 0 0 0 5.042 1.584c.95.174 1.92.267 2.897.323a23.7 23.7 0 0 1-5.17 6.268 23.633 23.633 0 0 1-8.229-2.393 24.07 24.07 0 0 0 1.81-1.49 22.729 22.729 0 0 0 3.65-4.292zm-12.906.674a22.091 22.091 0 0 0 3.857 3.618 23.43 23.43 0 0 0 2.473 1.548 23.706 23.706 0 0 1-7.381 3.404 23.616 23.616 0 0 1-6.374-5.728c.77-.15 1.528-.335 2.273-.558a22.74 22.74 0 0 0 5.152-2.284zm29.93 0c-.843 1.744-1.887 3.416-3.194 4.938-.46.537-.955 1.054-1.475 1.555a23.388 23.388 0 0 1-8.802 1.095 24.297 24.297 0 0 0 5.042-6.33 24.183 24.183 0 0 0 8.429-1.258zm-53.951.105c.286.167.572.333.862.486a23.359 23.359 0 0 0 6.247 2.215 23.963 23.963 0 0 0 5.815 6.13c-2.217-.421-4.453-1.196-6.656-2.36-2.62-1.934-4.69-4.126-6.268-6.471zm15.951 2.835a24.202 24.202 0 0 0 6.235 5.804c-1.888.428-3.845.653-5.847.58-.71-.026-1.426-.09-2.143-.185a23.369 23.369 0 0 1-6.336-6.195 24.41 24.41 0 0 0 8.091 0zM75.73 82.79c-1.735 1.5-3.756 2.893-6.102 4.132a35.666 35.666 0 0 1-3.595 1.65 23.567 23.567 0 0 0 3.882-2.995 25.672 25.672 0 0 0 5.815-2.787zm-24.503 1.29a24.18 24.18 0 0 0 8.135 2.523c-1.516 1.205-3.181 2.256-5.017 3.06-.652.285-1.325.539-2.012.765a23.382 23.382 0 0 1-8.4-2.835 24.317 24.317 0 0 0 7.294-3.513zM68.62 85.97a23.74 23.74 0 0 1-6.003 3.741c-3.14.84-6.144 1.086-8.958.86.308-.12.617-.242.917-.374a23.392 23.392 0 0 0 5.627-3.502c2.742.245 5.58.043 8.417-.725zm-39.04 1.175c1.582.564 3.171.948 4.745 1.163a25.688 25.688 0 0 0 5.819 2.813c-2.257-.42-4.606-1.135-7.04-2.196a35.596 35.596 0 0 1-3.524-1.78zm13.62.652a23.988 23.988 0 0 0 7.9 2.998c-2.187.584-4.54.859-7.037.765-3.193-.606-6.004-1.686-8.44-3.11.33.026.661.05.99.062a23.36 23.36 0 0 0 6.587-.715zm9.237 3.208c2.049.267 4.2.288 6.436.015-2.211.598-4.63.974-7.277 1.074-1.37.052-2.683.017-3.951-.077a23.579 23.579 0 0 0 4.792-1.012z" overflow="visible"/></svg></svg>