<svg xmlns="http://www.w3.org/2000/svg" color-interpolation-filters="sRGB" style="margin:auto" version="1.0" viewBox="0 0 340 250"><rect width="100%" height="100%" fill="#fff" class="background"/><rect width="100%" height="100%" fill="url(#watermark)" class="watermarklayer"/><g fill="#382e75" class="pmspacesvg"><path fill="none" stroke="#382e75" stroke-opacity=".5" stroke-width="20" d="M49.23 156.645v-63.29h241.54M49.23 156.645h241.54v-63.29" data-gra="graph-name"/><g mask="url(#a)" transform="translate(49.23 93.355)"><path d="M0 0h241.54v63.29H0z" class="i-icon-bg" data-gra="graph-name-bg"/><path fill="#fff" d="M11.06 44.15q-.48 0-.77-.31-.29-.32-.29-.8v-31.4q0-.53.29-.85.29-.31.77-.31h19.77q.53 0 .84.31.31.32.31.85v1.73q0 .48-.31.77-.31.29-.84.29h-16.4v10.72h15.34q.53 0 .84.31.31.32.31.85v1.63q0 .48-.31.79-.31.32-.84.32H14.43v11.11h16.78q.53 0 .85.31.31.31.31.84v1.73q0 .48-.34.8-.34.31-.82.31H11.06Zm28.52 0q-.48 0-.79-.31-.31-.32-.31-.8V20.25q0-.49.31-.8.31-.31.79-.31h2.07q.53 0 .82.29.29.29.29.82v2.11q1.44-1.78 3.34-2.74 1.9-.96 4.74-.96 4.61 0 7.16 2.96 2.55 2.95 2.55 7.81v13.61q0 .48-.31.8-.31.31-.79.31h-2.22q-.48 0-.79-.31-.31-.32-.31-.8V29.72q0-3.46-1.69-5.39-1.68-1.92-4.81-1.92-3.07 0-4.9 1.95-1.83 1.95-1.83 5.36v13.32q0 .48-.31.8-.31.31-.8.31h-2.21Zm37.23 0q-7.46 0-7.46-8.42V22.84h-3.8q-.48 0-.76-.29-.29-.28-.29-.77v-1.53q0-.49.29-.8.28-.31.76-.31h3.8v-8.03q0-.48.29-.8.29-.31.77-.31h2.12q.48 0 .79.31.31.32.31.8v8.03h5.97q.48 0 .79.31.32.31.32.8v1.53q0 .49-.32.77-.31.29-.79.29h-5.97V35.4q0 2.45.8 3.7.79 1.25 2.72 1.25h2.93q.48 0 .77.31.29.32.29.8v1.58q0 .48-.29.8-.29.31-.77.31h-3.27Zm10.15 0q-.48 0-.8-.31-.31-.32-.31-.8V20.29q0-.48.31-.81.32-.34.8-.34h2.02q.53 0 .84.31.31.31.31.84v2.12q1.97-3.27 6.69-3.27h1.87q.53 0 .82.29.29.29.29.82v1.78q0 .48-.29.79-.29.31-.82.31h-2.74q-2.64 0-4.16 1.54-1.51 1.54-1.51 4.19v14.18q0 .48-.34.8-.34.31-.82.31h-2.16Zm26.64.48q-5.29 0-8.15-2.98-2.86-2.98-3.05-7.94l-.05-2.07.05-2.06q.19-4.96 3.1-7.94 2.91-2.98 8.1-2.98 5.2 0 8.11 2.98 2.91 2.98 3.1 7.94.1 1.05.1 2.06t-.1 2.07q-.19 4.96-3.05 7.94-2.87 2.98-8.16 2.98Zm0-3.61q3.08 0 4.89-1.94 1.8-1.95 1.94-5.61.05-.48.05-1.83 0-1.34-.05-1.82-.14-3.66-1.94-5.61-1.81-1.94-4.89-1.94-3.07 0-4.88 1.94-1.8 1.95-1.95 5.61l-.04 1.82.04 1.83q.15 3.66 1.95 5.61 1.81 1.94 4.88 1.94Zm18.52 12.27q-.48 0-.79-.29-.32-.29-.32-.82V20.25q0-.53.32-.82.31-.29.79-.29h2.02q.53 0 .82.29.29.29.29.82v2.11q2.79-3.7 7.93-3.7 5.05 0 7.58 3.2 2.52 3.2 2.67 8.15.05.53.05 1.63 0 1.11-.05 1.64-.15 4.91-2.67 8.13-2.53 3.22-7.58 3.22-5.14 0-7.79-3.65v11.2q0 .48-.31.8-.31.31-.79.31h-2.17Zm10.15-12.41q3.46 0 5.05-2.16 1.59-2.17 1.73-5.68.05-.48.05-1.4 0-9.23-6.83-9.23-3.37 0-5.07 2.24-1.71 2.23-1.81 5.26-.05.53-.05 1.88 0 1.35.05 1.87.1 2.94 1.85 5.08 1.76 2.14 5.03 2.14Zm20.68 12.41q-.43 0-.72-.29t-.29-.67q0-.15.24-.87l3.75-8.8-9.18-21.69q-.29-.58-.29-.82.05-.43.33-.72.29-.29.68-.29h2.21q.77 0 1.15.77l7.41 17.7 7.6-17.7q.39-.77 1.16-.77h2.16q.38 0 .67.29.29.29.29.67 0 .34-.24.87l-13.61 31.55q-.24.38-.51.58-.26.19-.69.19h-2.12Zm29.58-9.14q-.38 0-.67-.29-.29-.29-.29-.67l.1-.53 11.92-31.12q.39-1.06 1.54-1.06h3.08q1.15 0 1.54 1.06l11.93 31.12.09.53q0 .38-.31.67-.31.29-.7.29h-2.26q-.48 0-.79-.26-.31-.27-.41-.56l-2.69-6.92h-15.92l-2.65 6.92q-.38.82-1.2.82h-2.31Zm14.14-29-6.59 17.26h13.18l-6.59-17.26Zm21.36 29q-.48 0-.77-.31-.29-.32-.29-.8V11.59q0-.48.29-.8.29-.31.77-.31h2.4q.53 0 .82.29.29.29.29.82v31.45q0 .48-.32.8-.31.31-.79.31h-2.4Z" class="tp-name" data-gra="path-name"/></g></g><mask id="a"><path fill="#fff" stroke-width="2" d="M0 0h241.54v63.29H0z" class="i-icon-bg" data-gra="graph-name-bg"/><path d="M11.06 44.15q-.48 0-.77-.31-.29-.32-.29-.8v-31.4q0-.53.29-.85.29-.31.77-.31h19.77q.53 0 .84.31.31.32.31.85v1.73q0 .48-.31.77-.31.29-.84.29h-16.4v10.72h15.34q.53 0 .84.31.31.32.31.85v1.63q0 .48-.31.79-.31.32-.84.32H14.43v11.11h16.78q.53 0 .85.31.31.31.31.84v1.73q0 .48-.34.8-.34.31-.82.31H11.06Zm28.52 0q-.48 0-.79-.31-.31-.32-.31-.8V20.25q0-.49.31-.8.31-.31.79-.31h2.07q.53 0 .82.29.29.29.29.82v2.11q1.44-1.78 3.34-2.74 1.9-.96 4.74-.96 4.61 0 7.16 2.96 2.55 2.95 2.55 7.81v13.61q0 .48-.31.8-.31.31-.79.31h-2.22q-.48 0-.79-.31-.31-.32-.31-.8V29.72q0-3.46-1.69-5.39-1.68-1.92-4.81-1.92-3.07 0-4.9 1.95-1.83 1.95-1.83 5.36v13.32q0 .48-.31.8-.31.31-.8.31h-2.21Zm37.23 0q-7.46 0-7.46-8.42V22.84h-3.8q-.48 0-.76-.29-.29-.28-.29-.77v-1.53q0-.49.29-.8.28-.31.76-.31h3.8v-8.03q0-.48.29-.8.29-.31.77-.31h2.12q.48 0 .79.31.31.32.31.8v8.03h5.97q.48 0 .79.31.32.31.32.8v1.53q0 .49-.32.77-.31.29-.79.29h-5.97V35.4q0 2.45.8 3.7.79 1.25 2.72 1.25h2.93q.48 0 .77.31.29.32.29.8v1.58q0 .48-.29.8-.29.31-.77.31h-3.27Zm10.15 0q-.48 0-.8-.31-.31-.32-.31-.8V20.29q0-.48.31-.81.32-.34.8-.34h2.02q.53 0 .84.31.31.31.31.84v2.12q1.97-3.27 6.69-3.27h1.87q.53 0 .82.29.29.29.29.82v1.78q0 .48-.29.79-.29.31-.82.31h-2.74q-2.64 0-4.16 1.54-1.51 1.54-1.51 4.19v14.18q0 .48-.34.8-.34.31-.82.31h-2.16Zm26.64.48q-5.29 0-8.15-2.98-2.86-2.98-3.05-7.94l-.05-2.07.05-2.06q.19-4.96 3.1-7.94 2.91-2.98 8.1-2.98 5.2 0 8.11 2.98 2.91 2.98 3.1 7.94.1 1.05.1 2.06t-.1 2.07q-.19 4.96-3.05 7.94-2.87 2.98-8.16 2.98Zm0-3.61q3.08 0 4.89-1.94 1.8-1.95 1.94-5.61.05-.48.05-1.83 0-1.34-.05-1.82-.14-3.66-1.94-5.61-1.81-1.94-4.89-1.94-3.07 0-4.88 1.94-1.8 1.95-1.95 5.61l-.04 1.82.04 1.83q.15 3.66 1.95 5.61 1.81 1.94 4.88 1.94Zm18.52 12.27q-.48 0-.79-.29-.32-.29-.32-.82V20.25q0-.53.32-.82.31-.29.79-.29h2.02q.53 0 .82.29.29.29.29.82v2.11q2.79-3.7 7.93-3.7 5.05 0 7.58 3.2 2.52 3.2 2.67 8.15.05.53.05 1.63 0 1.11-.05 1.64-.15 4.91-2.67 8.13-2.53 3.22-7.58 3.22-5.14 0-7.79-3.65v11.2q0 .48-.31.8-.31.31-.79.31h-2.17Zm10.15-12.41q3.46 0 5.05-2.16 1.59-2.17 1.73-5.68.05-.48.05-1.4 0-9.23-6.83-9.23-3.37 0-5.07 2.24-1.71 2.23-1.81 5.26-.05.53-.05 1.88 0 1.35.05 1.87.1 2.94 1.85 5.08 1.76 2.14 5.03 2.14Zm20.68 12.41q-.43 0-.72-.29t-.29-.67q0-.15.24-.87l3.75-8.8-9.18-21.69q-.29-.58-.29-.82.05-.43.33-.72.29-.29.68-.29h2.21q.77 0 1.15.77l7.41 17.7 7.6-17.7q.39-.77 1.16-.77h2.16q.38 0 .67.29.29.29.29.67 0 .34-.24.87l-13.61 31.55q-.24.38-.51.58-.26.19-.69.19h-2.12Zm29.58-9.14q-.38 0-.67-.29-.29-.29-.29-.67l.1-.53 11.92-31.12q.39-1.06 1.54-1.06h3.08q1.15 0 1.54 1.06l11.93 31.12.09.53q0 .38-.31.67-.31.29-.7.29h-2.26q-.48 0-.79-.26-.31-.27-.41-.56l-2.69-6.92h-15.92l-2.65 6.92q-.38.82-1.2.82h-2.31Zm14.14-29-6.59 17.26h13.18l-6.59-17.26Zm21.36 29q-.48 0-.77-.31-.29-.32-.29-.8V11.59q0-.48.29-.8.29-.31.77-.31h2.4q.53 0 .82.29.29.29.29.82v31.45q0 .48-.32.8-.31.31-.79.31h-2.4Z" class="tp-name" data-gra="path-name"/></mask></svg>