<svg xmlns="http://www.w3.org/2000/svg" data-name="Layer 1" fill="rgb(255,255,255)" stroke="rgb(255,255,255)" viewBox="19.33 13.88 74 75.12"><path d="M93.33 52a37 37 0 0 1-74 0c0-1.2.06-2.38.17-3.54A33.84 33.84 0 1 0 78 22a37 37 0 0 1 15.33 30Z"/><path d="M70.93 71.82a32.51 32.51 0 0 1-50.27-23.77 33.3 33.3 0 0 1-.16-3.33 32.49 32.49 0 0 1 22.27-30.84A32.47 32.47 0 0 0 28.22 41c0 1.13.06 2.23.16 3.33a32.53 32.53 0 0 0 42.55 27.49Z"/><path d="M80.5 53.16a19 19 0 0 1-37.94 2c-.05-.65-.09-1.29-.09-2a19 19 0 1 1 38 0Z"/></svg>
