<svg xmlns="http://www.w3.org/2000/svg" viewBox="0.8 0.8 96 96"><path fill="none" stroke="rgb(255,255,255)" stroke-miterlimit="10" stroke-width="4" d="M48.8 48.8c-16.7 0-30.3-13.5-30.3-30.3V14H43m-13.8 0c-.8 2.6-1.3 5.4-1.3 8.3 0 12.9 5.1 26.5 20.9 26.5m20.6-28.6L52 2.8 48.8 6C37 17.9 37 37 48.8 48.8m10.7-38.5c-2.5 1.3-4.8 2.9-6.8 5-9.1 9.1-15.1 22.3-3.9 33.5m34.8-5.7V18.6h-4.5c-16.7 0-30.3 13.5-30.3 30.3m34.8-19.7c-2.6-.8-5.4-1.3-8.3-1.3-12.9 0-26.5 5.1-26.5 20.9m28.7 20.6L94.8 52l-3.2-3.2c-11.8-11.8-31-11.8-42.8 0m38.5 10.7c-1.3-2.5-2.9-4.8-5-6.8-9.1-9.1-22.3-15.1-33.5-3.9m5.8 34.8h24.5v-4.5c0-16.7-13.5-30.3-30.3-30.3m19.7 34.8c.8-2.6 1.3-5.4 1.3-8.3 0-12.9-5.1-26.5-20.9-26.5M28.3 77.5l17.3 17.3 3.2-3.2c11.8-11.8 11.8-31 0-42.8M38.1 87.3c2.5-1.3 4.8-2.9 6.8-5C54 73.2 60 60 48.8 48.8M14 54.6v24.5h4.5c16.7 0 30.3-13.5 30.3-30.3M14 68.5c2.6.8 5.4 1.3 8.3 1.3 12.9 0 26.5-5.1 26.5-20.9M20.2 28.3 2.8 45.6 6 48.8c11.8 11.8 31 11.8 42.8 0M10.3 38.1c1.3 2.5 2.9 4.8 5 6.8C24.4 54 37.6 60 48.8 48.8"/></svg>
